<mxfile host="app.diagrams.net" modified="2024-04-10T08:17:48.492Z" agent="Mozilla/5.0 (Windows NT 10.0; Win64; x64) AppleWebKit/537.36 (KHTML, like Gecko) Chrome/123.0.0.0 Safari/537.36" etag="dG1HitGsb625-pnAVtaF" version="24.2.3" type="github">
  <diagram name="Страница — 1" id="zYJull6VpNai9G3tL-5W">
    <mxGraphModel dx="2336" dy="821" grid="1" gridSize="10" guides="1" tooltips="1" connect="1" arrows="1" fold="1" page="1" pageScale="1" pageWidth="827" pageHeight="1169" math="0" shadow="0">
      <root>
        <mxCell id="0" />
        <mxCell id="1" parent="0" />
        <mxCell id="viZBQOtL8W3r8linXLVl-24" style="edgeStyle=orthogonalEdgeStyle;rounded=0;orthogonalLoop=1;jettySize=auto;html=1;" edge="1" parent="1" source="viZBQOtL8W3r8linXLVl-1" target="viZBQOtL8W3r8linXLVl-2">
          <mxGeometry relative="1" as="geometry" />
        </mxCell>
        <mxCell id="viZBQOtL8W3r8linXLVl-25" style="edgeStyle=orthogonalEdgeStyle;rounded=0;orthogonalLoop=1;jettySize=auto;html=1;" edge="1" parent="1" source="viZBQOtL8W3r8linXLVl-1" target="viZBQOtL8W3r8linXLVl-5">
          <mxGeometry relative="1" as="geometry" />
        </mxCell>
        <mxCell id="viZBQOtL8W3r8linXLVl-26" style="edgeStyle=orthogonalEdgeStyle;rounded=0;orthogonalLoop=1;jettySize=auto;html=1;" edge="1" parent="1" source="viZBQOtL8W3r8linXLVl-1" target="viZBQOtL8W3r8linXLVl-7">
          <mxGeometry relative="1" as="geometry" />
        </mxCell>
        <mxCell id="viZBQOtL8W3r8linXLVl-1" value="BasicRules" style="ellipse;whiteSpace=wrap;html=1;" vertex="1" parent="1">
          <mxGeometry x="400" y="80" width="120" height="80" as="geometry" />
        </mxCell>
        <mxCell id="viZBQOtL8W3r8linXLVl-12" style="edgeStyle=orthogonalEdgeStyle;rounded=0;orthogonalLoop=1;jettySize=auto;html=1;entryX=0.5;entryY=0;entryDx=0;entryDy=0;" edge="1" parent="1" source="viZBQOtL8W3r8linXLVl-2" target="viZBQOtL8W3r8linXLVl-9">
          <mxGeometry relative="1" as="geometry" />
        </mxCell>
        <mxCell id="viZBQOtL8W3r8linXLVl-15" style="edgeStyle=orthogonalEdgeStyle;rounded=0;orthogonalLoop=1;jettySize=auto;html=1;" edge="1" parent="1" source="viZBQOtL8W3r8linXLVl-2" target="viZBQOtL8W3r8linXLVl-13">
          <mxGeometry relative="1" as="geometry" />
        </mxCell>
        <mxCell id="viZBQOtL8W3r8linXLVl-22" style="edgeStyle=orthogonalEdgeStyle;rounded=0;orthogonalLoop=1;jettySize=auto;html=1;" edge="1" parent="1" source="viZBQOtL8W3r8linXLVl-2" target="viZBQOtL8W3r8linXLVl-20">
          <mxGeometry relative="1" as="geometry" />
        </mxCell>
        <mxCell id="viZBQOtL8W3r8linXLVl-23" style="edgeStyle=orthogonalEdgeStyle;rounded=0;orthogonalLoop=1;jettySize=auto;html=1;" edge="1" parent="1" source="viZBQOtL8W3r8linXLVl-2" target="viZBQOtL8W3r8linXLVl-21">
          <mxGeometry relative="1" as="geometry" />
        </mxCell>
        <mxCell id="viZBQOtL8W3r8linXLVl-2" value="CoreMechanics" style="ellipse;whiteSpace=wrap;html=1;" vertex="1" parent="1">
          <mxGeometry x="80" y="240" width="120" height="80" as="geometry" />
        </mxCell>
        <mxCell id="viZBQOtL8W3r8linXLVl-5" value="Publicity" style="ellipse;whiteSpace=wrap;html=1;" vertex="1" parent="1">
          <mxGeometry x="160" y="320" width="120" height="80" as="geometry" />
        </mxCell>
        <mxCell id="viZBQOtL8W3r8linXLVl-7" value="ItemsManipulation" style="ellipse;whiteSpace=wrap;html=1;" vertex="1" parent="1">
          <mxGeometry x="240" y="400" width="120" height="80" as="geometry" />
        </mxCell>
        <mxCell id="viZBQOtL8W3r8linXLVl-31" style="edgeStyle=orthogonalEdgeStyle;rounded=0;orthogonalLoop=1;jettySize=auto;html=1;entryX=0.5;entryY=0;entryDx=0;entryDy=0;" edge="1" parent="1" source="viZBQOtL8W3r8linXLVl-9" target="viZBQOtL8W3r8linXLVl-27">
          <mxGeometry relative="1" as="geometry" />
        </mxCell>
        <mxCell id="viZBQOtL8W3r8linXLVl-32" style="edgeStyle=orthogonalEdgeStyle;rounded=0;orthogonalLoop=1;jettySize=auto;html=1;entryX=0.5;entryY=0;entryDx=0;entryDy=0;" edge="1" parent="1" source="viZBQOtL8W3r8linXLVl-9" target="viZBQOtL8W3r8linXLVl-30">
          <mxGeometry relative="1" as="geometry" />
        </mxCell>
        <mxCell id="viZBQOtL8W3r8linXLVl-9" value="Tests" style="ellipse;whiteSpace=wrap;html=1;" vertex="1" parent="1">
          <mxGeometry x="-320" y="390" width="120" height="80" as="geometry" />
        </mxCell>
        <mxCell id="viZBQOtL8W3r8linXLVl-13" value="Limits" style="ellipse;whiteSpace=wrap;html=1;" vertex="1" parent="1">
          <mxGeometry x="-240" y="480" width="120" height="80" as="geometry" />
        </mxCell>
        <mxCell id="viZBQOtL8W3r8linXLVl-20" value="Edge" style="ellipse;whiteSpace=wrap;html=1;" vertex="1" parent="1">
          <mxGeometry x="-160" y="560" width="120" height="80" as="geometry" />
        </mxCell>
        <mxCell id="viZBQOtL8W3r8linXLVl-21" value="ConditionMonitors" style="ellipse;whiteSpace=wrap;html=1;" vertex="1" parent="1">
          <mxGeometry x="-80" y="640" width="120" height="80" as="geometry" />
        </mxCell>
        <mxCell id="viZBQOtL8W3r8linXLVl-27" value="ConsecutiveAttempts" style="rounded=1;whiteSpace=wrap;html=1;" vertex="1" parent="1">
          <mxGeometry x="-700" y="570" width="120" height="60" as="geometry" />
        </mxCell>
        <mxCell id="viZBQOtL8W3r8linXLVl-29" value="" style="edgeStyle=orthogonalEdgeStyle;rounded=0;orthogonalLoop=1;jettySize=auto;html=1;entryX=0.5;entryY=0;entryDx=0;entryDy=0;" edge="1" parent="1" source="viZBQOtL8W3r8linXLVl-9" target="viZBQOtL8W3r8linXLVl-28">
          <mxGeometry relative="1" as="geometry">
            <mxPoint x="-260" y="470" as="sourcePoint" />
            <mxPoint x="-380" y="720" as="targetPoint" />
          </mxGeometry>
        </mxCell>
        <mxCell id="viZBQOtL8W3r8linXLVl-28" value="Glitches" style="rounded=1;whiteSpace=wrap;html=1;" vertex="1" parent="1">
          <mxGeometry x="-580" y="645" width="120" height="60" as="geometry" />
        </mxCell>
        <mxCell id="viZBQOtL8W3r8linXLVl-30" value="SuccesBuyout" style="rounded=1;whiteSpace=wrap;html=1;" vertex="1" parent="1">
          <mxGeometry x="-460" y="720" width="120" height="60" as="geometry" />
        </mxCell>
      </root>
    </mxGraphModel>
  </diagram>
</mxfile>
